# xmcd
#
# Track frame offsets:
#	150
#	27925
#	55140
#	89080
#	110082
#	134695
#	156642
#	173220
#	210487
#	238345
#	261055
#	297087
#
# Disc length: 4423 seconds
#
# Revision: 4
# Processed by: cddbd v1.5.2PL0 Copyright (c) Steve Scherf et al.
# Submitted via: audiograbber 1.83.01
#
DISCID=ba11450c
DTITLE=John Lee Hooker - The Cream
DYEAR=1989
DGENRE=Blues
TTITLE0=Hey, Hey
TTITLE1=She's Gone
TTITLE2=Tupelo
TTITLE3=You Know It Ain't Right
TTITLE4=Sugar Mama
TTITLE5=One Room Country Shack
TTITLE6=I Want You to Roll Me
TTITLE7=Bar Room Drinking
TTITLE8=Little Girl
TTITLE9=Louise
TTITLE10=When My First Wife Left Me
TTITLE11=Boogie On
EXTD=
EXTT0=J.L. Hooker
EXTT1=J.L. Hooker
EXTT2=J.L. Hooker
EXTT3=J.L. Hooker
EXTT4=J.L. Hooker
EXTT5=J.L. Hooker
EXTT6=J.L. Hooker
EXTT7=J.L. Hooker
EXTT8=J.L. Hooker
EXTT9=J.L. Hooker
EXTT10=J.L. Hooker
EXTT11=J.L. Hooker
PLAYORDER=
